<svg width="35" height="47" viewBox="0 0 35 47" fill="none" xmlns="http://www.w3.org/2000/svg">
<g id="Group 48098980">
<path id="Vector" d="M22.4503 21.7901C23.3546 22.8749 23.3799 24.4435 22.511 25.5569L6.5925 45.954C6.27239 46.3642 5.78112 46.6039 5.26081 46.6039C3.85382 46.6039 3.06348 44.9846 3.92912 43.8754L18.2256 25.5567C19.0944 24.4434 19.0692 22.8749 18.165 21.7902L2.25075 2.69766C1.3579 1.6265 2.1196 0 3.51408 0C4.00206 0 4.46484 0.216696 4.77731 0.591506L22.4503 21.7901Z" fill="#01F8AE"/>
<path id="Vector_2" d="M33.4503 21.7901C34.3546 22.8749 34.3799 24.4435 33.511 25.5569L17.5925 45.954C17.2724 46.3642 16.7811 46.6039 16.2608 46.6039C14.8538 46.6039 14.0635 44.9846 14.9291 43.8754L29.2256 25.5567C30.0944 24.4434 30.0692 22.8749 29.165 21.7902L13.2508 2.69766C12.3579 1.6265 13.1196 0 14.5141 0C15.0021 0 15.4648 0.216696 15.7773 0.591506L33.4503 21.7901Z" fill="#01F8AE"/>
</g>
</svg>
